<svg height="256" viewBox="0 0 256 256" width="256" xmlns="http://www.w3.org/2000/svg" xmlns:xlink="http://www.w3.org/1999/xlink"><linearGradient id="a" gradientUnits="userSpaceOnUse" x1="170.3732975" x2="278.5066388125" y1="135.0766525" y2="365.6630611875"><stop offset="0" stop-color="#ccc"/><stop offset="1" stop-color="#808080"/></linearGradient><filter id="b" color-interpolation-filters="sRGB"><feGaussianBlur stdDeviation="2.1290943"/></filter><filter id="c" color-interpolation-filters="sRGB"><feGaussianBlur stdDeviation="3.0817451"/></filter><filter id="d" color-interpolation-filters="sRGB"><feGaussianBlur stdDeviation="1.9852151"/></filter><filter id="e" color-interpolation-filters="sRGB"><feGaussianBlur stdDeviation="1.8150568"/></filter><filter id="f" color-interpolation-filters="sRGB"><feGaussianBlur stdDeviation="2.2142605"/></filter><filter id="g" color-interpolation-filters="sRGB"><feGaussianBlur stdDeviation="1.7075197"/></filter><filter id="h" color-interpolation-filters="sRGB"><feGaussianBlur stdDeviation="1.9756463"/></filter><filter id="i" color-interpolation-filters="sRGB"><feGaussianBlur stdDeviation="2.1878655"/></filter><filter id="j" color-interpolation-filters="sRGB"><feGaussianBlur stdDeviation="1.8703984"/></filter><filter id="k" color-interpolation-filters="sRGB"><feGaussianBlur stdDeviation="1.6152692"/></filter><filter id="l" color-interpolation-filters="sRGB"><feGaussianBlur stdDeviation="2.6187566"/></filter><filter id="m" color-interpolation-filters="sRGB"><feGaussianBlur stdDeviation="2.7954182"/></filter><filter id="n" color-interpolation-filters="sRGB"><feGaussianBlur stdDeviation="2.0032066"/></filter><filter id="o" color-interpolation-filters="sRGB"><feGaussianBlur stdDeviation="2.1838664"/></filter><linearGradient id="p" gradientUnits="userSpaceOnUse" x1="-15.8707025" x2="378.601235" y1="224.6835275" y2="224.6835275"><stop offset="0" stop-color="#ccc"/><stop offset=".5" stop-color="#fff" stop-opacity=".98431"/><stop offset="1" stop-color="#ccc" stop-opacity=".99043"/></linearGradient><linearGradient id="q" gradientUnits="userSpaceOnUse" x1="46.3066725" x2="76.3292975" y1="194.7185275" y2="174.7226525"><stop offset="0" stop-color="#ccc"/><stop offset="1" stop-color="#999"/></linearGradient><linearGradient id="r" gradientUnits="userSpaceOnUse" x1="30.03387" x2="89.5893075" y1="409.6948111875" y2="338.00934"><stop offset="0" stop-color="#800000"/><stop offset="1" stop-color="#a00"/></linearGradient><linearGradient id="s" gradientUnits="userSpaceOnUse" x1="1711.1" x2="2427.8" y1="1605.2" y2="1605.2"><stop offset="0" stop-color="#800000"/><stop offset=".5" stop-color="#800000" stop-opacity="0"/><stop offset="1" stop-color="#800000" stop-opacity=".99522"/></linearGradient><g transform="matrix(.59287744 0 0 .59287744 5.423752 -16.272431)"><path d="m43.305615 148.87309 53.5075 161.5375h218.075005l53.56874-161.425s-46.635-50.17375-77.79875-60.6875c-54.2125-18.2875-117.59625-16.79125-171.625 2.01925-30.132495 10.49025-75.718745 58.55625-75.718745 58.55625z" fill="#890000" stroke-width=".125"/><path d="m43.305615 151.74809 53.5075 161.5375h218.075005l53.56874-161.425s-46.635-50.17375-77.79875-60.6875c-54.2125-18.2875-117.59625-16.79125-171.625 2.01913-30.132495 10.49025-75.718745 58.55625-75.718745 58.55625z" fill="url(#a)" stroke-width=".125"/><g filter="url(#b)" opacity=".5" transform="matrix(.3601625 0 0 -.3601625 -536.19564 896.82309)"><path d="m2084.3 2393.9-15.417-710.61 47.654-7.0079 15.417 728.83z"/><path d="m260.87 69.511-4.2048-1.752-2.1024 93.906 4.38-3.1536z" transform="matrix(8 0 0 -8 0 2950)"/><path d="m256.53 67.847 4.4238 1.7958 5.475-1.4454-3.5478-1.0512z" transform="matrix(8 0 0 -8 0 2950)"/></g><g transform="matrix(.3601625 0 0 -.3601625 -536.19564 896.82309)"><path d="m2084.3 2393.9-15.417-710.61 47.654-7.0079 15.417 728.83z" fill="#f7d333"/><g transform="matrix(8 0 0 -8 0 2950)"><path d="m260.87 69.511-4.2048-1.752-2.1024 93.906 4.38-3.1536z" fill="#efb319"/><path d="m256.53 67.847 4.4238 1.7958 5.475-1.4454-3.5478-1.0512z" fill="#fcec3d"/></g></g><g filter="url(#c)" opacity=".5" transform="matrix(.3597875 .01623625 .01623625 -.3597875 -567.78314 863.61059)"><path d="m251.48 75.145 4.2121-1.7344-.99107 92.17-5.1907 1.1362z" transform="matrix(8 0 0 -8 0 2950)"/><path d="m244.93 74.416 6.5373.59816-1.219 91.804-5.9464-6.6897z" transform="matrix(8 0 0 -8 0 2950)"/><path d="m244.93 74.46 6.7013.70079 4.2048-1.7082-5.8254-.4818z" transform="matrix(8 0 0 -8 0 2950)"/></g><path d="m251.48 75.145 4.2121-1.7344-.99107 92.17-5.1907 1.1362z" fill="#efb319" transform="matrix(2.8783 .12989 -.12989 2.8783 -519.8862025 -197.762535)"/><path d="m244.93 74.416 6.5373.59816-1.219 91.804-5.9464-6.6897z" fill="#f7d333" transform="matrix(2.8783 .12989 -.12989 2.8783 -519.8862025 -197.762535)"/><path d="m244.93 74.46 6.7013.70079 4.2048-1.7082-5.8254-.4818z" fill="#fcec3d" transform="matrix(2.8783 .12989 -.12989 2.8783 -519.8862025 -197.762535)"/><g filter="url(#c)" opacity=".5" transform="matrix(.3584 .03548125 .03548125 -.3584 -594.84564 832.29809)"><path d="m229.69 77.22 10.162 80.416 7.0079 1.5768-11.038-82.694-6.8328-2.1024z" transform="matrix(8 0 0 -8 0 2950)"/><path d="m235.64 76.519 3.1536-2.2776 11.914 87.074-4.918-1.6068z" transform="matrix(8 0 0 -8 0 2950)"/><path d="m228.91 74.551 6.7602 2.0086 3.0992-2.1612-5.5519-1.9992z" transform="matrix(8 0 0 -8 0 2950)"/></g><path d="m229.69 77.22 10.162 80.416 7.0079 1.5768-11.038-82.694-6.8328-2.1024z" fill="#f7d333" transform="matrix(2.8672 .28385 -.28385 2.8672 -490.1759525 -224.98191)"/><path d="m235.64 76.519 3.1536-2.2776 11.914 87.074-4.918-1.6068z" fill="#efb319" transform="matrix(2.8672 .28385 -.28385 2.8672 -490.1759525 -224.98191)"/><path d="m228.91 74.551 6.7602 2.0086 3.0992-2.1612-5.5519-1.9992z" fill="#fcec3d" transform="matrix(2.8672 .28385 -.28385 2.8672 -490.1759525 -224.98191)"/><g filter="url(#c)" opacity=".5" transform="matrix(.3435125 .1082225 .1082225 -.3435125 -711.67064 650.92309)"><path d="m213.58 131.88-15.362-39.147 6.442-5.4509 28.741 64.42z" transform="matrix(8 0 0 -8 0 2950)"/><path d="m1633.3 2247.8 15.857 19.821 238.4-573.32-79.825 36.16z"/><path d="m198.23 92.945 2.1939-4.8635 5.9528-2.7765-1.7221 3.6625z" transform="matrix(8 0 0 -8 0 2950)"/></g><g transform="matrix(.3435125 .1082225 .1082225 -.3435125 -711.67064 650.92309)"><path d="m213.58 131.88-15.362-39.147 6.442-5.4509 28.741 64.42z" fill="#f7d333" transform="matrix(8 0 0 -8 0 2950)"/><path d="m1633.3 2247.8 15.857 19.821 238.4-573.32-79.825 36.16z" fill="#efb319"/><path d="m198.23 92.945 2.1939-4.8635 5.9528-2.7765-1.7221 3.6625z" fill="#fcec3d" transform="matrix(8 0 0 -8 0 2950)"/></g><g filter="url(#c)" opacity=".5" transform="matrix(.3601625 0 0 -.3601625 -536.19564 896.82309)"><path d="m213.58 131.88-15.362-39.147 6.442-5.4509 28.741 64.42z" transform="matrix(8 0 0 -8 0 2950)"/><path d="m1633.3 2247.8 15.857 19.821 238.4-573.32-79.825 36.16z"/><path d="m198.68 92.287 1.752-4.2048 5.256-2.1024-1.0512 4.5552z" transform="matrix(8 0 0 -8 0 2950)"/></g><g transform="matrix(.3601625 0 0 -.3601625 -536.19564 896.82309)"><path d="m213.58 131.88-15.362-39.147 6.442-5.4509 28.741 64.42z" fill="#f7d333" transform="matrix(8 0 0 -8 0 2950)"/><path d="m1633.3 2247.8 15.857 19.821 238.4-573.32-79.825 36.16z" fill="#efb319"/><path d="m198.68 92.287 1.752-4.2048 5.256-2.1024-1.0512 4.5552z" fill="#fcec3d" transform="matrix(8 0 0 -8 0 2950)"/></g><g filter="url(#d)" opacity=".5" transform="matrix(.36 -.0105235 -.0105235 -.36 -514.38314 913.89809)"><path d="m266.83 74.241 6.6576 79.891 5.0808-.876-6.6576-77.263z" transform="matrix(8 0 0 -8 0 2950)"/><path d="m271.73 76.168 4.9056-2.1024 6.4824 79.19-4.7304.5256z" transform="matrix(8 0 0 -8 0 2950)"/><path d="m266.83 74.416 5.256 1.752 4.7304-1.9272-5.6064-.87599z" transform="matrix(8 0 0 -8 0 2950)"/></g><path d="m266.83 74.241 6.6576 79.891 5.0808-.876-6.6576-77.263z" fill="#f7d333" transform="matrix(2.88 -.084188 .084188 2.88 -545.427465 -148.10191)"/><path d="m271.73 76.168 4.9056-2.1024 6.4824 79.19-4.7304.5256z" fill="#efb319" transform="matrix(2.88 -.084188 .084188 2.88 -545.427465 -148.10191)"/><path d="m266.83 74.416 5.256 1.752 4.7304-1.9272-5.6064-.87599z" fill="#fcec3d" transform="matrix(2.88 -.084188 .084188 2.88 -545.427465 -148.10191)"/><g filter="url(#e)" opacity=".5" transform="matrix(.3601625 0 0 -.3601625 -536.19564 896.82309)"><path d="m284 78.446-6.8327 1.5768 1.9272 71.306 7.1831-4.9056z" transform="matrix(8 0 0 -8 0 2950)"/><path d="m277.16 79.848-3.8544-1.5768 2.4528 75.861 3.504-1.9272z" transform="matrix(8 0 0 -8 0 2950)"/><path d="m273.13 78.534 6.3072-2.0148 4.818 2.19-6.9203 1.314z" transform="matrix(8 0 0 -8 0 2950)"/></g><path d="m284 78.446-6.8327 1.5768 1.9272 71.306 7.1831-4.9056z" fill="#f7d333" transform="matrix(2.8813 0 0 2.8813 -536.19564 -165.656285)"/><path d="m277.16 79.848-3.8544-1.5768 2.4528 75.861 3.504-1.9272z" fill="#efb319" transform="matrix(2.8813 0 0 2.8813 -536.19564 -165.656285)"/><path d="m273.13 78.534 6.3072-2.0148 4.818 2.19-6.9203 1.314z" fill="#fcec3d" transform="matrix(2.8813 0 0 2.8813 -536.19564 -165.656285)"/><g filter="url(#f)" opacity=".5" transform="matrix(-.3601625 0 0 -.3601625 983.51687 891.82309)"><path d="m229.69 77.22 10.162 80.416 7.0079 1.5768-11.038-82.694-6.8328-2.1024z" transform="matrix(8 0 0 -8 0 2950)"/><path d="m235.64 76.519 3.1536-2.2776 11.914 87.074-4.918-1.6068z" transform="matrix(8 0 0 -8 0 2950)"/><path d="m228.91 74.551 6.7602 2.0086 3.0992-2.1612-5.5519-1.9992z" transform="matrix(8 0 0 -8 0 2950)"/></g><path d="m229.69 77.22 10.162 80.416 7.0079 1.5768-11.038-82.694-6.8328-2.1024z" fill="#f7d333" transform="matrix(-2.8813 0 0 2.8813 983.51687 -170.656285)"/><path d="m235.64 76.519 3.1536-2.2776 11.914 87.074-4.918-1.6068z" fill="#efb319" transform="matrix(-2.8813 0 0 2.8813 983.51687 -170.656285)"/><path d="m228.91 74.551 6.7602 2.0086 3.0992-2.1612-5.5519-1.9992z" fill="#fcec3d" transform="matrix(-2.8813 0 0 2.8813 983.51687 -170.656285)"/><g filter="url(#g)" opacity=".5" transform="matrix(.358925 -.029735 -.029735 -.358925 -301.92063 942.88559)"><path d="m1803.8 2277.5 45.589-25.768 19.822-483.64-61.446 57.482z"/><path d="m1849.3 2251.7 29.732 13.875 13.875-525.27-33.696 39.643z"/><path d="m1802.8 2275.4 47.571-23.786 30.723 13.875-20.813 23.786-28.741 6.9375z"/></g><g transform="matrix(.358925 -.029735 -.029735 -.358925 -301.92063 942.88559)"><path d="m1803.8 2277.5 45.589-25.768 19.822-483.64-61.446 57.482z" fill="#efb319"/><path d="m1849.3 2251.7 29.732 13.875 13.875-525.27-33.696 39.643z" fill="#f7d333"/><path d="m1802.8 2275.4 47.571-23.786 30.723 13.875-20.813 23.786-28.741 6.9375z" fill="#fcec3d"/></g><g filter="url(#h)" opacity=".5" transform="matrix(-.3456625 .113175 -.101155 -.3867375 1116.9419 747.91059)"><path d="m213.58 131.88-15.362-39.147 6.442-5.4509 28.741 64.42z" transform="matrix(8 0 0 -8 0 2950)"/><path d="m1633.3 2247.8 15.857 19.821 238.4-573.32-79.825 36.16z"/><path d="m198.68 92.287 1.752-4.2048 5.256-2.1024-1.0512 4.5552z" transform="matrix(8 0 0 -8 0 2950)"/></g><g transform="matrix(-.3456625 .113175 -.101155 -.3867375 1116.9419 747.91059)"><path d="m213.58 131.88-15.362-39.147 6.442-5.4509 28.741 64.42z" fill="#f7d333" transform="matrix(8 0 0 -8 0 2950)"/><path d="m1633.3 2247.8 15.857 19.821 238.4-573.32-79.825 36.16z" fill="#efb319"/><path d="m198.68 92.287 1.752-4.2048 5.256-2.1024-1.0512 4.5552z" fill="#fcec3d" transform="matrix(8 0 0 -8 0 2950)"/></g><g filter="url(#i)" opacity=".5" transform="matrix(-.3601625 0 0 -.3601625 956.72936 896.11059)"><path d="m213.58 131.88-15.362-39.147 6.442-5.4509 28.741 64.42z" transform="matrix(8 0 0 -8 0 2950)"/><path d="m1633.3 2247.8 15.857 19.821 238.4-573.32-79.825 36.16z"/><path d="m198.68 92.287 1.752-4.2048 5.256-2.1024-1.0512 4.5552z" transform="matrix(8 0 0 -8 0 2950)"/></g><g transform="matrix(-.3601625 0 0 -.3601625 956.72936 896.11059)"><path d="m213.58 131.88-15.362-39.147 6.442-5.4509 28.741 64.42z" fill="#f7d333" transform="matrix(8 0 0 -8 0 2950)"/><path d="m1633.3 2247.8 15.857 19.821 238.4-573.32-79.825 36.16z" fill="#efb319"/><path d="m198.68 92.287 1.752-4.2048 5.256-2.1024-1.0512 4.5552z" fill="#fcec3d" transform="matrix(8 0 0 -8 0 2950)"/></g><g filter="url(#j)" opacity=".5" transform="matrix(-.3364625 .138125 -.1291375 -.3783125 1147.8044 770.89809)"><path d="m213.58 131.88-15.362-39.147 6.442-5.4509 28.741 64.42z" transform="matrix(8 0 0 -8 0 2950)"/><path d="m1633.3 2247.8 15.857 19.821 238.4-573.32-79.825 36.16z"/><path d="m198.68 92.287 1.752-4.2048 5.256-2.1024-1.0512 4.5552z" transform="matrix(8 0 0 -8 0 2950)"/></g><g transform="matrix(-.3364625 .138125 -.1291375 -.3783125 1147.8044 770.89809)"><path d="m213.58 131.88-15.362-39.147 6.442-5.4509 28.741 64.42z" fill="#f7d333" transform="matrix(8 0 0 -8 0 2950)"/><path d="m1633.3 2247.8 15.857 19.821 238.4-573.32-79.825 36.16z" fill="#efb319"/><path d="m198.68 92.287 1.752-4.2048 5.256-2.1024-1.0512 4.5552z" fill="#fcec3d" transform="matrix(8 0 0 -8 0 2950)"/></g><g filter="url(#c)" opacity=".5" transform="matrix(.3601625 0 0 -.3601625 -541.95813 896.82309)"><path d="m229.69 77.22 10.162 80.416 7.0079 1.5768-11.038-82.694-6.8328-2.1024z" transform="matrix(8 0 0 -8 0 2950)"/><path d="m235.64 76.519 3.1536-2.2776 11.914 87.074-4.918-1.6068z" transform="matrix(8 0 0 -8 0 2950)"/><path d="m228.91 74.551 6.7602 2.0086 3.0992-2.1612-5.5519-1.9992z" transform="matrix(8 0 0 -8 0 2950)"/></g><path d="m229.69 77.22 10.162 80.416 7.0079 1.5768-11.038-82.694-6.8328-2.1024z" fill="#f7d333" transform="matrix(2.8813 0 0 2.8813 -541.95813 -165.656285)"/><path d="m235.64 76.519 3.1536-2.2776 11.914 87.074-4.918-1.6068z" fill="#efb319" transform="matrix(2.8813 0 0 2.8813 -541.95813 -165.656285)"/><path d="m228.91 74.551 6.7602 2.0086 3.0992-2.1612-5.5519-1.9992z" fill="#fcec3d" transform="matrix(2.8813 0 0 2.8813 -541.95813 -165.656285)"/><g filter="url(#k)" opacity=".5" transform="matrix(.3601625 0 0 -.3601625 -541.95813 891.06059)"><path d="m1803.8 2277.5 45.589-25.768 19.822-483.64-61.446 57.482z"/><path d="m1849.3 2251.7 29.732 13.875 13.875-525.27-33.696 39.643z"/><path d="m1802.8 2275.4 47.571-23.786 30.723 13.875-20.813 23.786-28.741 6.9375z"/></g><g transform="matrix(.3601625 0 0 -.3601625 -541.95813 891.06059)"><path d="m1803.8 2277.5 45.589-25.768 19.822-483.64-61.446 57.482z" fill="#efb319"/><path d="m1849.3 2251.7 29.732 13.875 13.875-525.27-33.696 39.643z" fill="#f7d333"/><path d="m1802.8 2275.4 47.571-23.786 30.723 13.875-20.813 23.786-28.741 6.9375z" fill="#fcec3d"/></g><g filter="url(#i)" opacity=".5" transform="matrix(.3601625 0 0 -.3601625 -501.22063 917.52309)"><path d="m213.58 131.88-15.362-39.147 6.442-5.4509 28.741 64.42z" transform="matrix(8 0 0 -8 0 2950)"/><path d="m1633.3 2247.8 15.857 19.821 238.4-573.32-79.825 36.16z"/><path d="m198.68 92.287 1.752-4.2048 5.256-2.1024-1.0512 4.5552z" transform="matrix(8 0 0 -8 0 2950)"/></g><g filter="url(#l)" opacity=".5" transform="matrix(.198125 0 0 -.198125 -120.61064 505.02799)"><path d="m176.91 152.7 11.893 4.4598 8.4241 94.647-16.848-5.9464z" transform="matrix(8 0 0 -8 0 2950)"/><path d="m188.8 156.66 6.9375-2.4777 9.4152 96.63-7.9286 1.9821z" transform="matrix(8 0 0 -8 0 2950)"/><path d="m176.95 152.73 11.563 4.7304 7.5335-3.6792-9.9863-3.6792z" transform="matrix(8 0 0 -8 0 2950)"/></g><path d="m176.91 152.7 11.893 4.4598 8.4241 94.647-16.848-5.9464z" fill="#f7d333" transform="matrix(1.585 0 0 1.585 -120.61064 -79.44076)"/><path d="m188.8 156.66 6.9375-2.4777 9.4152 96.63-7.9286 1.9821z" fill="#efb319" transform="matrix(1.585 0 0 1.585 -120.61064 -79.44076)"/><path d="m176.95 152.73 11.563 4.7304 7.5335-3.6792-9.9863-3.6792z" fill="#fcec3d" transform="matrix(1.585 0 0 1.585 -120.61064 -79.44076)"/><g transform="matrix(.3601625 0 0 -.3601625 -501.22063 917.52309)"><path d="m213.58 131.88-15.362-39.147 6.442-5.4509 28.741 64.42z" fill="#f7d333" transform="matrix(8 0 0 -8 0 2950)"/><path d="m1633.3 2247.8 15.857 19.821 238.4-573.32-79.825 36.16z" fill="#efb319"/><path d="m198.68 92.287 1.752-4.2048 5.256-2.1024-1.0512 4.5552z" fill="#fcec3d" transform="matrix(8 0 0 -8 0 2950)"/></g><g filter="url(#m)" opacity=".5" transform="matrix(.198125 0 0 -.198125 -120.61064 505.02799)"><path d="m1724.5 2029.7 3.9643-947.47 83.25 15.857-19.822 911.79z"/><path d="m1789.9 2011.9 48.052 20.643 23.305-886.84-48.981-49.638z"/><path d="m1724 2032.3 67.276-22.425 50.457 22.425-44.851 30.835z"/></g><g transform="matrix(.198125 0 0 -.198125 -120.61064 505.02799)"><path d="m1724.5 2029.7 3.9643-947.47 83.25 15.857-19.822 911.79z" fill="#efb319"/><path d="m1789.9 2011.9 48.052 20.643 23.305-886.84-48.981-49.638z" fill="#f7d333"/><path d="m1724 2032.3 67.276-22.425 50.457 22.425-44.851 30.835z" fill="#fcec3d"/></g><g filter="url(#n)" opacity=".5" transform="matrix(-.3479 .10608375 -.09322625 -.388725 1038.8294 832.69809)"><path d="m213.58 131.88-15.362-39.147 6.442-5.4509 28.741 64.42z" transform="matrix(8 0 0 -8 0 2950)"/><path d="m1633.3 2247.8 15.857 19.821 238.4-573.32-79.825 36.16z"/><path d="m198.68 92.287 1.752-4.2048 5.256-2.1024-1.0512 4.5552z" transform="matrix(8 0 0 -8 0 2950)"/></g><g filter="url(#o)" opacity=".5" transform="matrix(.3597875 .01623625 .01623625 -.3597875 -546.05813 979.94809)"><path d="m251.48 75.145 4.2121-1.7344-.99107 92.17-5.1907 1.1362z" transform="matrix(8 0 0 -8 0 2950)"/><path d="m244.93 74.416 6.5373.59816-1.219 91.804-5.9464-6.6897z" transform="matrix(8 0 0 -8 0 2950)"/><path d="m244.93 74.46 6.7013.70079 4.2048-1.7082-5.8254-.4818z" transform="matrix(8 0 0 -8 0 2950)"/></g><path d="m251.48 75.145 4.2121-1.7344-.99107 92.17-5.1907 1.1362z" fill="#efb319" transform="matrix(2.8783 .12989 -.12989 2.8783 -498.1611925 -81.425035)"/><path d="m244.93 74.416 6.5373.59816-1.219 91.804-5.9464-6.6897z" fill="#f7d333" transform="matrix(2.8783 .12989 -.12989 2.8783 -498.1611925 -81.425035)"/><path d="m244.93 74.46 6.7013.70079 4.2048-1.7082-5.8254-.4818z" fill="#fcec3d" transform="matrix(2.8783 .12989 -.12989 2.8783 -498.1611925 -81.425035)"/><g transform="matrix(-.3479 .10608375 -.09322625 -.388725 1038.8294 832.69809)"><path d="m213.58 131.88-15.362-39.147 6.442-5.4509 28.741 64.42z" fill="#f7d333" transform="matrix(8 0 0 -8 0 2950)"/><path d="m1633.3 2247.8 15.857 19.821 238.4-573.32-79.825 36.16z" fill="#efb319"/><path d="m198.68 92.287 1.752-4.2048 5.256-2.1024-1.0512 4.5552z" fill="#fcec3d" transform="matrix(8 0 0 -8 0 2950)"/></g><g stroke-width=".125"><path d="m344.02937 161.74809s-17.75875 2.50088-19.71875 8.1935c-8.17175 23.74-18.7925 49.035-37.09625 66.71875-22.935 22.16-51.15 39.25375-85.17751 43.57875-33.48624 4.25663-69.36124-18.8375-88.14874-49.88125-9.26876-15.31625-8.62888-34.18375-16.837505-49.88125-3-5.7375-26.475-12.7-26.475-12.7l7.83338 54.29375-4.95213-37.00625s14.1975 3.35763 17.1975 9.094c8.20838 15.6975 10.392005 38.88125 23.230005 53.48375 23.95999 27.25125 49.86749 38.72625 79.50499 39.8875 33.46375 1.31038 67.6275-16.07625 93.10001-37.81625 18.50999-15.7975 29.64499-38.74625 37.81625-62.4875 1.78513-5.186 16.0825-7.60212 18.72875-8.0135l.99044-17.4675z" fill="url(#p)"/><path d="m43.478115 150.46059 5.71113 31.7675 25.7 10.70825-4.28325-24.98625z" fill="url(#q)"/><path d="m76.479365 187.94809 33.812505 270.975-18.675005-14.5387-45.43-277.63755z" fill="url(#r)"/><path d="m343.65437 161.34809-.7572 18.1725 23.725-13.63 2.01925-15.39625z" fill="#a7a7a7"/><path d="m109.82936 457.65689s64.89125-15.1675 97.93001-15.2913c34.7025-.1299 102.9775 15.2913 102.9775 15.2913l18.1725-22.2113 15.14374-256.4375s-17.81375 2.5065-19.77375 8.19913c-8.17175 23.74-19.2625 46.675-37.7725 62.47125-25.47375 21.74-59.6125 39.13375-93.07625 37.82375-29.6375-1.16053-55.6025-12.59125-79.5625-39.84251-12.83875-14.60124-15.012495-37.80999-23.219995-53.50749-2.9995-5.73638-17.1625-9.08626-17.1625-9.08626z" fill="#c41c23"/><path d="m329.01686 435.44559 37.35001-269.5625-23.2125 13.375z" fill="#a00"/></g><path d="m2345.6973 1236.1953c-24.4951 5.4997-186.665 41.1877-280.0977 40.8379-82.9776-.3104-220.6121-30.4439-258.9883-39.1855l-95.5 716.0976c8.3999-3.995 15.7381-9.6815 15.8965-9.9844 20.4528-39.1147 26.1667-105.6542 66.5215-151.5527 68.7299-78.1713 145.9107-112.4141 231.7519-115.7754 98.5704-3.8598 196.08 46.5425 268.8614 108.6563 54.6361 46.6278 86.2907 112.9785 109.3769 180.0488-.8335-2.4215-.192-.2823 3.6504 1.7637 3.8424 2.0459 9.7364 4.2042 15.6446 5.8886 1.8015.5137 3.1647.718 4.914 1.1524l-40.5703-687.2715z" fill="url(#s)" opacity=".48161" transform="matrix(.3601625 0 0 -.3601625 -536.19564 896.82309)"/></g></svg>